<?xml version="1.0" encoding="UTF-8" standalone="no"?>
<!DOCTYPE svg PUBLIC "-//W3C//DTD SVG 1.1//EN"
 "http://www.w3.org/Graphics/SVG/1.1/DTD/svg11.dtd">
<!-- Generated by graphviz version 2.38.0 (20140413.2041)
 -->
<!-- Title: snakemake_dag Pages: 1 -->
<svg width="528pt" height="558pt"
 viewBox="0.00 0.00 527.50 558.00" xmlns="http://www.w3.org/2000/svg" xmlns:xlink="http://www.w3.org/1999/xlink">
<g id="graph0" class="graph" transform="scale(1 1) rotate(0) translate(4 554)">
<title>snakemake_dag</title>
<polygon fill="white" stroke="none" points="-4,4 -4,-554 523.5,-554 523.5,4 -4,4"/>
<!-- 0 -->
<g id="node1" class="node"><title>0</title>
<path fill="none" stroke="#d86e56" stroke-width="2" d="M173.5,-36C173.5,-36 143.5,-36 143.5,-36 137.5,-36 131.5,-30 131.5,-24 131.5,-24 131.5,-12 131.5,-12 131.5,-6 137.5,-0 143.5,-0 143.5,-0 173.5,-0 173.5,-0 179.5,-0 185.5,-6 185.5,-12 185.5,-12 185.5,-24 185.5,-24 185.5,-30 179.5,-36 173.5,-36"/>
<text text-anchor="middle" x="158.5" y="-15.5" font-family="sans" font-size="10.00">all</text>
</g>
<!-- 1 -->
<g id="node2" class="node"><title>1</title>
<path fill="none" stroke="#56c9d8" stroke-width="2" d="M195.5,-108C195.5,-108 121.5,-108 121.5,-108 115.5,-108 109.5,-102 109.5,-96 109.5,-96 109.5,-84 109.5,-84 109.5,-78 115.5,-72 121.5,-72 121.5,-72 195.5,-72 195.5,-72 201.5,-72 207.5,-78 207.5,-84 207.5,-84 207.5,-96 207.5,-96 207.5,-102 201.5,-108 195.5,-108"/>
<text text-anchor="middle" x="158.5" y="-87.5" font-family="sans" font-size="10.00">FilterMutectCalls</text>
</g>
<!-- 1&#45;&gt;0 -->
<g id="edge1" class="edge"><title>1&#45;&gt;0</title>
<path fill="none" stroke="grey" stroke-width="2" d="M158.5,-71.6966C158.5,-63.9827 158.5,-54.7125 158.5,-46.1124"/>
<polygon fill="grey" stroke="grey" stroke-width="2" points="162,-46.1043 158.5,-36.1043 155,-46.1044 162,-46.1043"/>
</g>
<!-- 2 -->
<g id="node3" class="node"><title>2</title>
<path fill="none" stroke="#d8bc56" stroke-width="2" d="M138,-252C138,-252 29,-252 29,-252 23,-252 17,-246 17,-240 17,-240 17,-228 17,-228 17,-222 23,-216 29,-216 29,-216 138,-216 138,-216 144,-216 150,-222 150,-228 150,-228 150,-240 150,-240 150,-246 144,-252 138,-252"/>
<text text-anchor="middle" x="83.5" y="-231.5" font-family="sans" font-size="10.00">variant_calling_Mutect2</text>
</g>
<!-- 2&#45;&gt;1 -->
<g id="edge2" class="edge"><title>2&#45;&gt;1</title>
<path fill="none" stroke="grey" stroke-width="2" d="M75.8886,-215.761C68.8039,-196.921 61.0513,-166.433 73.5,-144 80.6305,-131.151 92.3146,-121.01 104.769,-113.189"/>
<polygon fill="grey" stroke="grey" stroke-width="2" points="106.576,-116.187 113.469,-108.14 103.063,-110.133 106.576,-116.187"/>
</g>
<!-- 4 -->
<g id="node5" class="node"><title>4</title>
<path fill="none" stroke="#97d856" stroke-width="2" d="M222.5,-180C222.5,-180 94.5,-180 94.5,-180 88.5,-180 82.5,-174 82.5,-168 82.5,-168 82.5,-156 82.5,-156 82.5,-150 88.5,-144 94.5,-144 94.5,-144 222.5,-144 222.5,-144 228.5,-144 234.5,-150 234.5,-156 234.5,-156 234.5,-168 234.5,-168 234.5,-174 228.5,-180 222.5,-180"/>
<text text-anchor="middle" x="158.5" y="-159.5" font-family="sans" font-size="10.00">LearnReadOrientationModel</text>
</g>
<!-- 2&#45;&gt;4 -->
<g id="edge10" class="edge"><title>2&#45;&gt;4</title>
<path fill="none" stroke="grey" stroke-width="2" d="M102.039,-215.697C111.303,-207.05 122.662,-196.449 132.757,-187.027"/>
<polygon fill="grey" stroke="grey" stroke-width="2" points="135.251,-189.486 140.174,-180.104 130.475,-184.369 135.251,-189.486"/>
</g>
<!-- 3 -->
<g id="node4" class="node"><title>3</title>
<path fill="none" stroke="#567bd8" stroke-width="2" d="M380.5,-180C380.5,-180 264.5,-180 264.5,-180 258.5,-180 252.5,-174 252.5,-168 252.5,-168 252.5,-156 252.5,-156 252.5,-150 258.5,-144 264.5,-144 264.5,-144 380.5,-144 380.5,-144 386.5,-144 392.5,-150 392.5,-156 392.5,-156 392.5,-168 392.5,-168 392.5,-174 386.5,-180 380.5,-180"/>
<text text-anchor="middle" x="322.5" y="-159.5" font-family="sans" font-size="10.00">Calculate_Contamination</text>
</g>
<!-- 3&#45;&gt;1 -->
<g id="edge3" class="edge"><title>3&#45;&gt;1</title>
<path fill="none" stroke="grey" stroke-width="2" d="M282.381,-143.876C259.862,-134.264 231.582,-122.193 207.729,-112.013"/>
<polygon fill="grey" stroke="grey" stroke-width="2" points="209.06,-108.775 198.489,-108.068 206.312,-115.213 209.06,-108.775"/>
</g>
<!-- 4&#45;&gt;1 -->
<g id="edge4" class="edge"><title>4&#45;&gt;1</title>
<path fill="none" stroke="grey" stroke-width="2" d="M158.5,-143.697C158.5,-135.983 158.5,-126.712 158.5,-118.112"/>
<polygon fill="grey" stroke="grey" stroke-width="2" points="162,-118.104 158.5,-108.104 155,-118.104 162,-118.104"/>
</g>
<!-- 5 -->
<g id="node6" class="node"><title>5</title>
<path fill="none" stroke="#56d8b9" stroke-width="2" d="M234.5,-550C234.5,-550 154.5,-550 154.5,-550 148.5,-550 142.5,-544 142.5,-538 142.5,-538 142.5,-521 142.5,-521 142.5,-515 148.5,-509 154.5,-509 154.5,-509 234.5,-509 234.5,-509 240.5,-509 246.5,-515 246.5,-521 246.5,-521 246.5,-538 246.5,-538 246.5,-544 240.5,-550 234.5,-550"/>
<text text-anchor="middle" x="194.5" y="-538" font-family="sans" font-size="10.00">samtools_index</text>
<text text-anchor="middle" x="194.5" y="-527" font-family="sans" font-size="10.00">sample: SJCBF040</text>
<text text-anchor="middle" x="194.5" y="-516" font-family="sans" font-size="10.00">type: G</text>
</g>
<!-- 5&#45;&gt;2 -->
<g id="edge5" class="edge"><title>5&#45;&gt;2</title>
<path fill="none" stroke="grey" stroke-width="2" d="M198.654,-508.849C206.739,-465.237 220.132,-358.639 175.5,-288 167.262,-274.961 154.581,-264.784 141.241,-256.99"/>
<polygon fill="grey" stroke="grey" stroke-width="2" points="142.879,-253.897 132.42,-252.207 139.542,-260.051 142.879,-253.897"/>
</g>
<!-- 9 -->
<g id="node10" class="node"><title>9</title>
<path fill="none" stroke="#d8a456" stroke-width="2" d="M507.5,-473C507.5,-473 283.5,-473 283.5,-473 277.5,-473 271.5,-467 271.5,-461 271.5,-461 271.5,-449 271.5,-449 271.5,-443 277.5,-437 283.5,-437 283.5,-437 507.5,-437 507.5,-437 513.5,-437 519.5,-443 519.5,-449 519.5,-449 519.5,-461 519.5,-461 519.5,-467 513.5,-473 507.5,-473"/>
<text text-anchor="middle" x="395.5" y="-458" font-family="sans" font-size="10.00">Calculate_Contamination_GetPileupSummaries</text>
<text text-anchor="middle" x="395.5" y="-447" font-family="sans" font-size="10.00">token: WES_SJCBF040_v0.2</text>
</g>
<!-- 5&#45;&gt;9 -->
<g id="edge13" class="edge"><title>5&#45;&gt;9</title>
<path fill="none" stroke="grey" stroke-width="2" d="M246.524,-509.735C274.74,-499.558 309.661,-486.962 338.599,-476.524"/>
<polygon fill="grey" stroke="grey" stroke-width="2" points="339.946,-479.759 348.165,-473.074 337.571,-473.174 339.946,-479.759"/>
</g>
<!-- 11 -->
<g id="node12" class="node"><title>11</title>
<path fill="none" stroke="#56a9d8" stroke-width="2" d="M153,-473C153,-473 28,-473 28,-473 22,-473 16,-467 16,-461 16,-461 16,-449 16,-449 16,-443 22,-437 28,-437 28,-437 153,-437 153,-437 159,-437 165,-443 165,-449 165,-449 165,-461 165,-461 165,-467 159,-473 153,-473"/>
<text text-anchor="middle" x="90.5" y="-458" font-family="sans" font-size="10.00">Mutect2_tumour_only</text>
<text text-anchor="middle" x="90.5" y="-447" font-family="sans" font-size="10.00">token: WES_SJCBF040_v0.2</text>
</g>
<!-- 5&#45;&gt;11 -->
<g id="edge15" class="edge"><title>5&#45;&gt;11</title>
<path fill="none" stroke="grey" stroke-width="2" d="M166.356,-508.88C153.105,-499.643 137.215,-488.565 123.409,-478.941"/>
<polygon fill="grey" stroke="grey" stroke-width="2" points="125.33,-476.014 115.125,-473.166 121.327,-481.756 125.33,-476.014"/>
</g>
<!-- 6 -->
<g id="node7" class="node"><title>6</title>
<path fill="none" stroke="#56d8b9" stroke-width="2" stroke-dasharray="5,2" d="M323.5,-329C323.5,-329 243.5,-329 243.5,-329 237.5,-329 231.5,-323 231.5,-317 231.5,-317 231.5,-300 231.5,-300 231.5,-294 237.5,-288 243.5,-288 243.5,-288 323.5,-288 323.5,-288 329.5,-288 335.5,-294 335.5,-300 335.5,-300 335.5,-317 335.5,-317 335.5,-323 329.5,-329 323.5,-329"/>
<text text-anchor="middle" x="283.5" y="-317" font-family="sans" font-size="10.00">samtools_index</text>
<text text-anchor="middle" x="283.5" y="-306" font-family="sans" font-size="10.00">sample: SJCBF040</text>
<text text-anchor="middle" x="283.5" y="-295" font-family="sans" font-size="10.00">type: D</text>
</g>
<!-- 6&#45;&gt;2 -->
<g id="edge6" class="edge"><title>6&#45;&gt;2</title>
<path fill="none" stroke="grey" stroke-width="2" d="M231.474,-288.641C203.398,-278.463 168.71,-265.889 139.978,-255.473"/>
<polygon fill="grey" stroke="grey" stroke-width="2" points="141.074,-252.148 130.48,-252.03 138.688,-258.729 141.074,-252.148"/>
</g>
<!-- 8 -->
<g id="node9" class="node"><title>8</title>
<path fill="none" stroke="#d8a456" stroke-width="2" d="M404.5,-252C404.5,-252 180.5,-252 180.5,-252 174.5,-252 168.5,-246 168.5,-240 168.5,-240 168.5,-228 168.5,-228 168.5,-222 174.5,-216 180.5,-216 180.5,-216 404.5,-216 404.5,-216 410.5,-216 416.5,-222 416.5,-228 416.5,-228 416.5,-240 416.5,-240 416.5,-246 410.5,-252 404.5,-252"/>
<text text-anchor="middle" x="292.5" y="-237" font-family="sans" font-size="10.00">Calculate_Contamination_GetPileupSummaries</text>
<text text-anchor="middle" x="292.5" y="-226" font-family="sans" font-size="10.00">token: WES_SJCBF040_v0.2</text>
</g>
<!-- 6&#45;&gt;8 -->
<g id="edge12" class="edge"><title>6&#45;&gt;8</title>
<path fill="none" stroke="grey" stroke-width="2" d="M285.959,-287.689C286.925,-279.907 288.051,-270.842 289.093,-262.447"/>
<polygon fill="grey" stroke="grey" stroke-width="2" points="292.591,-262.675 290.35,-252.319 285.645,-261.812 292.591,-262.675"/>
</g>
<!-- 7 -->
<g id="node8" class="node"><title>7</title>
<path fill="none" stroke="#5673d8" stroke-width="2" d="M155,-326.5C155,-326.5 12,-326.5 12,-326.5 6,-326.5 1.42109e-14,-320.5 1.42109e-14,-314.5 1.42109e-14,-314.5 1.42109e-14,-302.5 1.42109e-14,-302.5 1.42109e-14,-296.5 6,-290.5 12,-290.5 12,-290.5 155,-290.5 155,-290.5 161,-290.5 167,-296.5 167,-302.5 167,-302.5 167,-314.5 167,-314.5 167,-320.5 161,-326.5 155,-326.5"/>
<text text-anchor="middle" x="83.5" y="-311.5" font-family="sans" font-size="10.00">CreateSomaticPanelOfNormals</text>
<text text-anchor="middle" x="83.5" y="-300.5" font-family="sans" font-size="10.00">token: WES_SJCBF040_v0.2</text>
</g>
<!-- 7&#45;&gt;2 -->
<g id="edge7" class="edge"><title>7&#45;&gt;2</title>
<path fill="none" stroke="grey" stroke-width="2" d="M83.5,-290.319C83.5,-281.922 83.5,-271.616 83.5,-262.186"/>
<polygon fill="grey" stroke="grey" stroke-width="2" points="87.0001,-262.058 83.5,-252.058 80.0001,-262.058 87.0001,-262.058"/>
</g>
<!-- 8&#45;&gt;3 -->
<g id="edge8" class="edge"><title>8&#45;&gt;3</title>
<path fill="none" stroke="grey" stroke-width="2" d="M299.916,-215.697C303.294,-207.813 307.37,-198.304 311.123,-189.546"/>
<polygon fill="grey" stroke="grey" stroke-width="2" points="314.447,-190.675 315.17,-180.104 308.013,-187.917 314.447,-190.675"/>
</g>
<!-- 9&#45;&gt;3 -->
<g id="edge9" class="edge"><title>9&#45;&gt;3</title>
<path fill="none" stroke="grey" stroke-width="2" d="M404.487,-436.901C424.867,-395.538 469.529,-288.172 425.5,-216 417.295,-202.551 404.466,-192.37 390.612,-184.716"/>
<polygon fill="grey" stroke="grey" stroke-width="2" points="391.9,-181.445 381.398,-180.042 388.733,-187.687 391.9,-181.445"/>
</g>
<!-- 10 -->
<g id="node11" class="node"><title>10</title>
<path fill="none" stroke="#56d88a" stroke-width="2" d="M130.5,-401C130.5,-401 42.5,-401 42.5,-401 36.5,-401 30.5,-395 30.5,-389 30.5,-389 30.5,-377 30.5,-377 30.5,-371 36.5,-365 42.5,-365 42.5,-365 130.5,-365 130.5,-365 136.5,-365 142.5,-371 142.5,-377 142.5,-377 142.5,-389 142.5,-389 142.5,-395 136.5,-401 130.5,-401"/>
<text text-anchor="middle" x="86.5" y="-380.5" font-family="sans" font-size="10.00">GenomicsDBImport</text>
</g>
<!-- 10&#45;&gt;7 -->
<g id="edge11" class="edge"><title>10&#45;&gt;7</title>
<path fill="none" stroke="grey" stroke-width="2" d="M85.789,-364.819C85.4416,-356.422 85.0152,-346.116 84.6249,-336.686"/>
<polygon fill="grey" stroke="grey" stroke-width="2" points="88.1164,-336.405 84.2059,-326.558 81.1224,-336.694 88.1164,-336.405"/>
</g>
<!-- 11&#45;&gt;10 -->
<g id="edge14" class="edge"><title>11&#45;&gt;10</title>
<path fill="none" stroke="grey" stroke-width="2" d="M89.5112,-436.697C89.0704,-428.983 88.5407,-419.712 88.0493,-411.112"/>
<polygon fill="grey" stroke="grey" stroke-width="2" points="91.5423,-410.888 87.4774,-401.104 84.5537,-411.288 91.5423,-410.888"/>
</g>
</g>
</svg>
